<svg width="78" height="25" viewBox="0 0 78 25" fill="none" xmlns="http://www.w3.org/2000/svg">
<path d="M64.6711 17.6913V6.67462H67.0633L71.8162 12.9856L70.2424 12.9699L74.9953 6.67462H77.356V17.6913H74.7593V14.1502C74.7593 13.2584 74.7802 12.4295 74.8222 11.6636C74.8642 10.8977 74.9481 10.1265 75.074 9.35009L75.3416 10.2157L71.5329 15.0158H70.4942L66.6541 10.2L66.9532 9.35009C67.0791 10.116 67.163 10.8819 67.205 11.6479C67.2469 12.4033 67.2679 13.2374 67.2679 14.1502V17.6913H64.6711Z" fill="#C5E309"/>
<path d="M52.601 17.6913V6.67462H58.5972C59.4261 6.67462 60.1395 6.82151 60.7376 7.11529C61.3461 7.40906 61.813 7.81826 62.1383 8.34286C62.474 8.86746 62.6419 9.48125 62.6419 10.1842C62.6419 10.8977 62.4635 11.5324 62.1068 12.0885C61.7501 12.6446 61.2622 13.0853 60.6432 13.4105C60.0346 13.7253 59.3526 13.8827 58.5972 13.8827H55.1506V17.6913H52.601ZM60.1395 17.6913L56.6614 12.718L59.4471 12.3246L63.2399 17.6913H60.1395ZM55.1506 11.8367H58.3139C58.6077 11.8367 58.8805 11.7738 59.1323 11.6479C59.3841 11.5219 59.5835 11.3436 59.7304 11.1128C59.8772 10.8819 59.9507 10.6249 59.9507 10.3416C59.9507 10.0478 59.872 9.79601 59.7146 9.58617C59.5677 9.36583 59.3631 9.19796 59.1008 9.08255C58.8385 8.96713 58.5448 8.90943 58.2195 8.90943H55.1506V11.8367Z" fill="#C5E309"/>
<path d="M37.6311 6.67462V17.6913H40.0233L44.7762 11.3803L43.2024 11.396L47.9553 17.6913H50.316V6.67462H47.7192V10.2157C47.7192 11.1075 47.7402 11.9364 47.7822 12.7023C47.8241 13.4682 47.9081 14.2394 48.034 15.0158L48.3015 14.1502L44.4929 9.35009H43.4542L39.6141 14.1659L39.9131 15.0158C40.039 14.2499 40.123 13.484 40.1649 12.718C40.2069 11.9626 40.2279 11.1285 40.2279 10.2157V6.67462H37.6311Z" fill="#C5E309"/>
<path d="M33.2383 14.2823C33.2383 13.8362 32.8768 13.4747 32.4307 13.4747H27.2363C25.3562 13.4747 23.8312 11.9505 23.8311 10.0704C23.8311 8.19015 25.3561 6.66513 27.2363 6.66513H35.4356V9.26279H27.2363C26.7902 9.26279 26.4287 9.62432 26.4287 10.0704C26.4289 10.5163 26.7904 10.878 27.2363 10.878H32.4307C34.3109 10.878 35.835 12.4021 35.835 14.2823C35.8349 16.1625 34.3109 17.6866 32.4307 17.6866H24.2315V15.0899H32.4307C32.8767 15.0899 33.2383 14.7284 33.2383 14.2823Z" fill="#C5E309"/>
<path d="M2.72017 2.55312C6.12446 -0.851165 11.6443 -0.850917 15.0488 2.55312L16.4088 3.91321L12.3191 8.00296L13.6685 9.35236C17.062 12.7459 17.062 18.2483 13.6685 21.6418C10.2751 25.0349 4.77369 25.0348 1.38026 21.6418L0 20.2615L4.0494 16.2109L2.72017 14.8817C-0.683847 11.4773 -0.684057 5.95742 2.72017 2.55312ZM10.9566 6.64524C9.8122 5.50121 7.95657 5.50096 6.81229 6.64524C5.66807 7.78953 5.66828 9.64517 6.81229 10.7896L8.17238 12.1497L4.12179 16.1991L5.47238 17.5497C6.60581 18.6827 8.44298 18.6828 9.57637 17.5497C10.7099 16.4162 10.7099 14.578 9.57637 13.4445L8.1973 12.0654L12.287 7.97566L10.9566 6.64524Z" fill="#C5E309"/>
</svg>
