<svg width="17" height="25" viewBox="0 0 17 25" fill="none" xmlns="http://www.w3.org/2000/svg">
<path d="M2.72017 2.55312C6.12446 -0.851165 11.6443 -0.850917 15.0488 2.55312L16.4088 3.91321L12.3191 8.00296L13.6685 9.35236C17.062 12.7459 17.062 18.2483 13.6685 21.6418C10.2751 25.0349 4.77369 25.0348 1.38026 21.6418L0 20.2615L4.0494 16.2109L2.72017 14.8817C-0.683847 11.4773 -0.684057 5.95742 2.72017 2.55312ZM10.9566 6.64524C9.8122 5.50121 7.95657 5.50096 6.81229 6.64524C5.66807 7.78953 5.66828 9.64517 6.81229 10.7896L8.17238 12.1497L4.12179 16.1991L5.47238 17.5497C6.60581 18.6827 8.44298 18.6828 9.57637 17.5497C10.7099 16.4162 10.7099 14.578 9.57637 13.4445L8.1973 12.0654L12.287 7.97566L10.9566 6.64524Z" fill="#C5E309"/>
</svg>
